<svg xmlns="http://www.w3.org/2000/svg" viewBox="0 0 512 512" width="512" height="512" xmlns:c2pa="http://c2pa.org/manifest"><metadata><c2pa:manifest>AAAWgmp1bWIAAAAeanVtZGMycGEAEQAQgAAAqgA4m3EDYzJwYQAAABZcanVtYgAAAEdqdW1kYzJtYQARABCAAACqADibcQN1cm46YzJwYTowMDUzNmY3OC05NTBkLTQwNjctODI1Mi00YWQ2Mjc3NjI5MWUAAAADl2p1bWIAAAApanVtZGMyYXMAEQAQgAAAqgA4m3EDYzJwYS5hc3NlcnRpb25zAAAAALxqdW1iAAAARGp1bWRjYm9yABEAEIAAAKoAOJtxE2MycGEuaW5ncmVkaWVudC52MwAAAAAYYzJzaDv0LFOyMigGL9bvJBtKAPYAAABwY2JvcqNpZGM6Zm9ybWF0bWltYWdlL3N2Zyt4bWxqaW5zdGFuY2VJRHgseG1wOmlpZDplZGI2OTYxMC1hYmEwLTRhMjQtYmZjMC0yOTk4OTQ2YjY1MWZscmVsYXRpb25zaGlwaHBhcmVudE9mAAAB4mp1bWIAAABBanVtZGNib3IAEQAQgAAAqgA4m3ETYzJwYS5hY3Rpb25zLnYyAAAAABhjMnNoN2Oudhbx7szB4elzbDm3pgAAAZljYm9yomdhY3Rpb25zgqJmYWN0aW9ua2MycGEub3BlbmVkanBhcmFtZXRlcnOha2luZ3JlZGllbnRzgaJjdXJseC1zZWxmI2p1bWJmPWMycGEuYXNzZXJ0aW9ucy9jMnBhLmluZ3JlZGllbnQudjNkaGFzaFgglBFpHn0W894bR7jng/3PhobyCL5URP788w/I9pw/PH2kZmFjdGlvbngdY29tLmFudGhyb3BpYy5jbGF1ZGUucHJvdmlkZWRqcGFyYW1ldGVyc6F4H2NvbS5hbnRocm9waWMub3JpZ2luLWNvbmZpZGVuY2VndW5rbm93bmtkZXNjcmlwdGlvbnhmQ2xhdWRlIHByb3ZpZGVkIHRoaXMgZmlsZSBhdCB0aGUgcmVxdWVzdCBvZiBhIHVzZXIgYW5kIG1heSBoYXZlIGNyZWF0ZWQgb3IgbW9kaWZpZWQgdGhlIGZpbGUgY29udGVudHMubXNvZnR3YXJlQWdlbnShZG5hbWVmQ2xhdWRlcmFsbEFjdGlvbnNJbmNsdWRlZPUAAADIanVtYgAAAEBqdW1kY2JvcgARABCAAACqADibcRNjMnBhLmhhc2guZGF0YQAAAAAYYzJzaAoiAqRjc+3ZDfJb+hkW4PcAAACAY2JvcqVjYWxnZnNoYTI1NmNwYWRNAAAAAAAAAAAAAAAAAGRoYXNoWCCcAiqhpc1xR1E6ZeGPNN4qsA8dHAgqj63/HYKsypLIFmRuYW1lbmp1bWJmIG1hbmlmZXN0amV4Y2x1c2lvbnOBomVzdGFydBiWZmxlbmd0aBkeBAAAAj5qdW1iAAAAJ2p1bWRjMmNsABEAEIAAAKoAOJtxA2MycGEuY2xhaW0udjIAAAACD2Nib3KlY2FsZ2ZzaGEyNTZpc2lnbmF0dXJleE1zZWxmI2p1bWJmPS9jMnBhL3VybjpjMnBhOjAwNTM2Zjc4LTk1MGQtNDA2Ny04MjUyLTRhZDYyNzc2MjkxZS9jMnBhLnNpZ25hdHVyZWppbnN0YW5jZUlEeCx4bXA6aWlkOmM1NjBiYWU3LWQwNDQtNGM1MC04NjE3LTkxZjFiZmQ0Y2E5MHJjcmVhdGVkX2Fzc2VydGlvbnODomN1cmx4LXNlbGYjanVtYmY9YzJwYS5hc3NlcnRpb25zL2MycGEuaW5ncmVkaWVudC52M2RoYXNoWCCUEWkefRbz3htHuOeD/c+GhvIIvlRE/vzzD8j2nD88faJjdXJseCpzZWxmI2p1bWJmPWMycGEuYXNzZXJ0aW9ucy9jMnBhLmFjdGlvbnMudjJkaGFzaFggu1IQnOCYIkh+VEYwCQzKM65yPx+uWqBTAIP4S2nuNOKiY3VybHgpc2VsZiNqdW1iZj1jMnBhLmFzc2VydGlvbnMvYzJwYS5oYXNoLmRhdGFkaGFzaFgg/nU90dP8XUdtk08G+x1zZhfntilSsR5sjF7XRqTtunt0Y2xhaW1fZ2VuZXJhdG9yX2luZm+jZG5hbWVvQW50aHJvcGljIEZpbGVzZ3ZlcnNpb25lMS4wLjBrc3BlY1ZlcnNpb25lMi40LjAAABA4anVtYgAAAChqdW1kYzJjcwARABCAAACqADibcQNjMnBhLnNpZ25hdHVyZQAAABAIY2JvctKEWQISogEmGCFZAgowggIGMIIBjaADAgECAhRA5aAK7sI50L64g/oGQgU9Z1UTADAKBggqhkjOPQQDAzBJMRcwFQYDVQQKEw5BbnRocm9waWMsIFBCQzEuMCwGA1UEAxMlQW50aHJvcGljIENvbnRlbnQgQ3JlZGVudGlhbHMgUm9vdCBDQTAeFw0yNjA4MDcxODQzNTZaFw0yODA4MDYxOTQzNTZaMEQxFzAVBgNVBAoTDkFudGhyb3BpYywgUEJDMSkwJwYDVQQDEyBBbnRocm9waWMgQ2xhdWRlIENvbnRlbnQgU2lnbmluZzBZMBMGByqGSM49AgEGCCqGSM49AwEHA0IABJh6CmvLUBgFFNU0vUKlOVtE6djd17L5SuwX0LemFisBM3dkd/3cyjxFA3Qo5S46fX0/ihY0VZ7mfb9KF703t5OjWDBWMA4GA1UdDwEB/wQEAwIHgDAVBgNVHSUEDjAMBgorBgEEAYPoXgIBMAwGA1UdEwEB/wQCMAAwHwYDVR0jBBgwFoAUzlHiBIFOZFsj+OPEz5o+nMHXXMIwCgYIKoZIzj0EAwMDZwAwZAIwMXMdFJ4BetLLVY7ORuE9noqbbAZOZn/aArXyTwFAZfKrPzxF2vPoJNf1+UCdg1XGAjBwX1zd9WGqYkqmL5SFqw1QySjr1zJfpJM9+1rdDwSPLMOPOjKuiXjoU/pUUeG9RwmhY3BhZFkNngAAAAAAAAAAAAAAAAAAAAAAAAAAAAAAAAAAAAAAAAAAAAAAAAAAAAAAAAAAAAAAAAAAAAAAAAAAAAAAAAAAAAAAAAAAAAAAAAAAAAAAAAAAAAAAAAAAAAAAAAAAAAAAAAAAAAAAAAAAAAAAAAAAAAAAAAAAAAAAAAAAAAAAAAAAAAAAAAAAAAAAAAAAAAAAAAAAAAAAAAAAAAAAAAAAAAAAAAAAAAAAAAAAAAAAAAAAAAAAAAAAAAAAAAAAAAAAAAAAAAAAAAAAAAAAAAAAAAAAAAAAAAAAAAAAAAAAAAAAAAAAAAAAAAAAAAAAAAAAAAAAAAAAAAAAAAAAAAAAAAAAAAAAAAAAAAAAAAAAAAAAAAAAAAAAAAAAAAAAAAAAAAAAAAAAAAAAAAAAAAAAAAAAAAAAAAAAAAAAAAAAAAAAAAAAAAAAAAAAAAAAAAAAAAAAAAAAAAAAAAAAAAAAAAAAAAAAAAAAAAAAAAAAAAAAAAAAAAAAAAAAAAAAAAAAAAAAAAAAAAAAAAAAAAAAAAAAAAAAAAAAAAAAAAAAAAAAAAAAAAAAAAAAAAAAAAAAAAAAAAAAAAAAAAAAAAAAAAAAAAAAAAAAAAAAAAAAAAAAAAAAAAAAAAAAAAAAAAAAAAAAAAAAAAAAAAAAAAAAAAAAAAAAAAAAAAAAAAAAAAAAAAAAAAAAAAAAAAAAAAAAAAAAAAAAAAAAAAAAAAAAAAAAAAAAAAAAAAAAAAAAAAAAAAAAAAAAAAAAAAAAAAAAAAAAAAAAAAAAAAAAAAAAAAAAAAAAAAAAAAAAAAAAAAAAAAAAAAAAAAAAAAAAAAAAAAAAAAAAAAAAAAAAAAAAAAAAAAAAAAAAAAAAAAAAAAAAAAAAAAAAAAAAAAAAAAAAAAAAAAAAAAAAAAAAAAAAAAAAAAAAAAAAAAAAAAAAAAAAAAAAAAAAAAAAAAAAAAAAAAAAAAAAAAAAAAAAAAAAAAAAAAAAAAAAAAAAAAAAAAAAAAAAAAAAAAAAAAAAAAAAAAAAAAAAAAAAAAAAAAAAAAAAAAAAAAAAAAAAAAAAAAAAAAAAAAAAAAAAAAAAAAAAAAAAAAAAAAAAAAAAAAAAAAAAAAAAAAAAAAAAAAAAAAAAAAAAAAAAAAAAAAAAAAAAAAAAAAAAAAAAAAAAAAAAAAAAAAAAAAAAAAAAAAAAAAAAAAAAAAAAAAAAAAAAAAAAAAAAAAAAAAAAAAAAAAAAAAAAAAAAAAAAAAAAAAAAAAAAAAAAAAAAAAAAAAAAAAAAAAAAAAAAAAAAAAAAAAAAAAAAAAAAAAAAAAAAAAAAAAAAAAAAAAAAAAAAAAAAAAAAAAAAAAAAAAAAAAAAAAAAAAAAAAAAAAAAAAAAAAAAAAAAAAAAAAAAAAAAAAAAAAAAAAAAAAAAAAAAAAAAAAAAAAAAAAAAAAAAAAAAAAAAAAAAAAAAAAAAAAAAAAAAAAAAAAAAAAAAAAAAAAAAAAAAAAAAAAAAAAAAAAAAAAAAAAAAAAAAAAAAAAAAAAAAAAAAAAAAAAAAAAAAAAAAAAAAAAAAAAAAAAAAAAAAAAAAAAAAAAAAAAAAAAAAAAAAAAAAAAAAAAAAAAAAAAAAAAAAAAAAAAAAAAAAAAAAAAAAAAAAAAAAAAAAAAAAAAAAAAAAAAAAAAAAAAAAAAAAAAAAAAAAAAAAAAAAAAAAAAAAAAAAAAAAAAAAAAAAAAAAAAAAAAAAAAAAAAAAAAAAAAAAAAAAAAAAAAAAAAAAAAAAAAAAAAAAAAAAAAAAAAAAAAAAAAAAAAAAAAAAAAAAAAAAAAAAAAAAAAAAAAAAAAAAAAAAAAAAAAAAAAAAAAAAAAAAAAAAAAAAAAAAAAAAAAAAAAAAAAAAAAAAAAAAAAAAAAAAAAAAAAAAAAAAAAAAAAAAAAAAAAAAAAAAAAAAAAAAAAAAAAAAAAAAAAAAAAAAAAAAAAAAAAAAAAAAAAAAAAAAAAAAAAAAAAAAAAAAAAAAAAAAAAAAAAAAAAAAAAAAAAAAAAAAAAAAAAAAAAAAAAAAAAAAAAAAAAAAAAAAAAAAAAAAAAAAAAAAAAAAAAAAAAAAAAAAAAAAAAAAAAAAAAAAAAAAAAAAAAAAAAAAAAAAAAAAAAAAAAAAAAAAAAAAAAAAAAAAAAAAAAAAAAAAAAAAAAAAAAAAAAAAAAAAAAAAAAAAAAAAAAAAAAAAAAAAAAAAAAAAAAAAAAAAAAAAAAAAAAAAAAAAAAAAAAAAAAAAAAAAAAAAAAAAAAAAAAAAAAAAAAAAAAAAAAAAAAAAAAAAAAAAAAAAAAAAAAAAAAAAAAAAAAAAAAAAAAAAAAAAAAAAAAAAAAAAAAAAAAAAAAAAAAAAAAAAAAAAAAAAAAAAAAAAAAAAAAAAAAAAAAAAAAAAAAAAAAAAAAAAAAAAAAAAAAAAAAAAAAAAAAAAAAAAAAAAAAAAAAAAAAAAAAAAAAAAAAAAAAAAAAAAAAAAAAAAAAAAAAAAAAAAAAAAAAAAAAAAAAAAAAAAAAAAAAAAAAAAAAAAAAAAAAAAAAAAAAAAAAAAAAAAAAAAAAAAAAAAAAAAAAAAAAAAAAAAAAAAAAAAAAAAAAAAAAAAAAAAAAAAAAAAAAAAAAAAAAAAAAAAAAAAAAAAAAAAAAAAAAAAAAAAAAAAAAAAAAAAAAAAAAAAAAAAAAAAAAAAAAAAAAAAAAAAAAAAAAAAAAAAAAAAAAAAAAAAAAAAAAAAAAAAAAAAAAAAAAAAAAAAAAAAAAAAAAAAAAAAAAAAAAAAAAAAAAAAAAAAAAAAAAAAAAAAAAAAAAAAAAAAAAAAAAAAAAAAAAAAAAAAAAAAAAAAAAAAAAAAAAAAAAAAAAAAAAAAAAAAAAAAAAAAAAAAAAAAAAAAAAAAAAAAAAAAAAAAAAAAAAAAAAAAAAAAAAAAAAAAAAAAAAAAAAAAAAAAAAAAAAAAAAAAAAAAAAAAAAAAAAAAAAAAAAAAAAAAAAAAAAAAAAAAAAAAAAAAAAAAAAAAAAAAAAAAAAAAAAAAAAAAAAAAAAAAAAAAAAAAAAAAAAAAAAAAAAAAAAAAAAAAAAAAAAAAAAAAAAAAAAAAAAAAAAAAAAAAAAAAAAAAAAAAAAAAAAAAAAAAAAAAAAAAAAAAAAAAAAAAAAAAAAAAAAAAAAAAAAAAAAAAAAAAAAAAAAAAAAAAAAAAAAAAAAAAAAAAAAAAAAAAAAAAAAAAAAAAAAAAAAAAAAAAAAAAAAAAAAAAAAAAAAAAAAAAAAAAAAAAAAAAAAAAAAAAAAAAAAAAAAAAAAAAAAAAAAAAAAAAAAAAAAAAAAAAAAAAAAAAAAAAAAAAAAAAAAAAAAAAAAAAAAAAAAAAAAAAAAAAAAAAAAAAAAAAAAAAAAAAAAAAAAAAAAAAAAAAAAAAAAAAAAAAAAAAAAAAAAAAAAAAAAAAAAAAAAAAAAAAAAAAAAAAAAAAAAAAAAAAAAAAAAAAAAAAAAAAAAAAAAAAAAAAAAAAAAAAAAAAAAAAAAAAAAAAAAAAAAAAAAAAAAAAAAAAAAAAAAAAAAAAAAAAAAAAAAAAAAAAAAAAAAAAAAAAAAAAAAAAAAAAAAAAAAAAAAAAAAAAAAAAAAAAAAAAAAAAAAAAAAAAAAAAAAAAAAAAAAAAAAAAAAAAAAAAAAAAAAAAAAAAAAAAAAAAAAAAAAAAAAAAAAAAAAAAAAAAAAAAAAAAAAAAAAAAAAAAAAAAAAAAAAAAAAAAAAAAAAAAAAAAAAAAAAAAAAAAAAAAAAAAAAAAAAAAAAAAAAAAAAAAAAAAAAAAAAAAAAAAAAAAAAAAAAAAAAAAAAAAAAAAAAAAAAAAAAAAAAAAAAAAAAAAAAAAAAAAAAAAAAAAAAAAAAAAAAAAAAAAAAAAAAAAAAAAAAAAAAAAAAAAAAAAAAAAAAAAAAAAAAAAAAAAAAAAAAAAAAAAAAAAAAAAAAAAAAAAAAAAAAAAAAAAAAAAAAAAAAAAAAAAAAAAAAAAAAAAAAAAAAAAAAAAAAAAAAAAAAAAAAAAAAAAAAAAAAAAAAAAAAAAAAAAAAAAAAAAAAAAAAAAAAAAAAAAAAAAAAAAAAAAAAAAAAAAAAAAAAAAAAAAAAAAAAAAAAAAAAAAAAAAAAAAAAAAAAAAAAAAAAAAAAAAAAAAAAAAAAAAAAAAAAAAAAAAAAAAAAAAAAAAAAAAAAAAAAAAAAAAAAAAAAAAAAAAAAAAAAAAAAAAAAAAAAAAAAAAAAAAAAAAAAAAAAAAAAAAAAAAAAAAAAAAAAAAAAAAAAAAAAAAAAAAAAAAAAAAAAAAAAAAAAAAAAAAAAAAAAAAAAAAAAAAAAAAAAAAAAAAAAAAAAAAAAAAAAAAAAAAAAAAAAAAAAAAAAAAAAAAAAAAAAAAAAAAAAAAAAAAAAAAAAAAAAAAAAAAAAAAAAAAAAAAAAAAAAAAAAAAAAAAAAAAAAAAAAAAAAAAAAAAAAAAAAAAAAAAAAAAAAAAAAAAAAAAAAAAAAAAAAAAAAAAAAAAAAAAAAAAAAAAAAAAAAAAAAAAAAAAAAAAAAAAAAAAAAAAAAAAAAAAAAAAAAAAAAAAAAAAAAAAAAAAAAAAAAAAAAAAAAAAAAAAAAAAAAAAAAAAAAAAAAAAAPZYQOVhdqaPDHyF32AQye8LcFUE37E/JUhcJrPX3OE6nIuYjlfYHpozGwwwNlzf43ml6RJRzrhoxm4VzllT/URpsQg=</c2pa:manifest></metadata>
<defs>
<linearGradient id="bg" x1="0" y1="0" x2="1" y2="1"><stop offset="0" stop-color="#1D3A57"></stop><stop offset="1" stop-color="#0A1828"></stop></linearGradient>
<radialGradient id="frost" cx="0.3" cy="0.2" r="0.9"><stop offset="0" stop-color="#CFE9FF" stop-opacity="0.16"></stop><stop offset="1" stop-color="#CFE9FF" stop-opacity="0"></stop></radialGradient>
<filter id="sketch" x="-10%" y="-10%" width="120%" height="120%"><feTurbulence type="fractalNoise" baseFrequency="0.008" numOctaves="1" seed="4" result="w"></feTurbulence><feDisplacementMap in="SourceGraphic" in2="w" scale="3" xChannelSelector="R" yChannelSelector="G"></feDisplacementMap></filter>
<filter id="smudge" x="-20%" y="-20%" width="140%" height="140%"><feGaussianBlur stdDeviation="4"></feGaussianBlur></filter>
<clipPath id="card"><rect width="512" height="512" rx="104"></rect></clipPath>
<clipPath id="hornC"><path d="M316 281 Q250 205 180 88 A28 100 30 0 0 80 262 Q225 272 322 297 Z"></path></clipPath>
<clipPath id="frontC"><rect x="150" y="330" width="200" height="100"></rect></clipPath>
<clipPath id="sideC"><polygon points="350,330 382,304 382,402 350,430"></polygon></clipPath>
<filter id="smooth" x="-10%" y="-10%" width="120%" height="120%"><feTurbulence type="fractalNoise" baseFrequency="0.008" numOctaves="1" seed="4" result="w"></feTurbulence><feDisplacementMap in="SourceGraphic" in2="w" scale="3" xChannelSelector="R" yChannelSelector="G"></feDisplacementMap></filter>
<filter id="soft" x="-20%" y="-20%" width="140%" height="140%"><feGaussianBlur stdDeviation="3"></feGaussianBlur></filter>
</defs>
<g clip-path="url(#card)">
<rect width="512" height="512" fill="url(#bg)" fill-opacity="0.86"></rect>
<rect width="512" height="512" fill="url(#frost)"></rect>
</g>
<rect x="6" y="6" width="500" height="500" rx="98" fill="none" stroke="#BFE3FF" stroke-opacity="0.28" stroke-width="3"></rect>

<g filter="url(#smudge)" opacity="0.5">
<path d="M316 281 Q250 205 180 88 A28 100 30 0 0 80 262 Q225 272 322 297 Z" fill="#9CCBEA" fill-opacity="0.35"></path>
<ellipse cx="130" cy="175" rx="28" ry="100" transform="rotate(30 130 175)" fill="#050C16" fill-opacity="0.9"></ellipse>
<polygon points="350,330 382,304 382,402 350,430" fill="#050C16" fill-opacity="0.7"></polygon>
<rect x="150" y="330" width="200" height="100" fill="#9CCBEA" fill-opacity="0.18"></rect>
<path d="M305 158 A 60 60 0 0 1 435 158" stroke="#9CCBEA" stroke-width="0" fill="none"></path>
</g>

<g transform="translate(20 -20)" fill="none" stroke-linecap="round">
<g filter="url(#soft)" stroke="#9CCBEA" stroke-width="30" opacity="0.55">
<path d="M321.7 206.7 A40 40 0 0 1 378.3 206.7"></path><path d="M293.4 178.4 A80 80 0 0 1 406.6 178.4"></path><path d="M265.1 150.1 A120 120 0 0 1 434.9 150.1"></path><path d="M350 238 h0.01" stroke-width="40"></path>
</g>
<g filter="url(#smooth)" stroke="#9CCBEA" stroke-width="24">
<path d="M321.7 206.7 A40 40 0 0 1 378.3 206.7"></path><path d="M293.4 178.4 A80 80 0 0 1 406.6 178.4"></path><path d="M265.1 150.1 A120 120 0 0 1 434.9 150.1"></path><path d="M350 238 h0.01" stroke-width="34"></path>
</g>
<g filter="url(#smooth)" stroke="#E4F0F9" stroke-width="2.2">
<path d="M324 212 A36 36 0 0 1 376 212"></path><path d="M296 184 A76 76 0 0 1 404 184"></path><path d="M268 156 A116 116 0 0 1 432 156"></path>
<circle cx="350" cy="238" r="17"></circle>
</g>
</g>

<g filter="url(#smooth)" transform="translate(1.6 -1.2) rotate(0.4 256 256)" opacity="0.35" fill="none" stroke-linecap="round" stroke-linejoin="round">

<g stroke="#E4F0F9" stroke-width="2.8">
<path d="M316 281 Q250 205 180 88 A28 100 30 0 0 80 262 Q225 272 322 297 Z"></path>
<path d="M314 279 Q252 208 184 92 M78 258 Q226 268 324 299" stroke-width="1.4" opacity="0.7"></path>
<ellipse cx="130" cy="175" rx="28" ry="100" transform="rotate(30 130 175)"></ellipse>
<ellipse cx="132" cy="176" rx="23" ry="93" transform="rotate(30 130 175)" stroke-width="1.4"></ellipse>
<ellipse cx="138" cy="181" rx="9" ry="34" transform="rotate(30 130 175)" stroke-width="1.6"></ellipse>
</g>
<g stroke="#E4F0F9" stroke-width="1.5" opacity="0.85"><path d="M185.3 98.4 Q247.2 212.4 319 289"></path><path d="M182.5 123.7 Q243.8 221.8 319 289"></path><path d="M169.9 158.5 Q240.3 231.1 319 289"></path><path d="M149.8 196.5 Q236.8 240.4 319 289"></path><path d="M126 230.4 Q233.3 249.7 319 289"></path><path d="M103 254 Q229.9 259 319 289"></path><path d="M88 262.3 Q227.1 266.4 319 289"></path></g>
<g stroke="#9CCBEA" stroke-width="1.2" opacity="0.8"><path d="M185.4 107 L155.4 155.2"></path><path d="M169.9 158.5 L150 173.2"></path><path d="M135.7 217.8 L138 194"></path><path d="M98.8 257 L125.1 207.7"></path><path d="M74.6 243 L116.6 202.8"></path><path d="M90.1 191.5 L122 184.8"></path><path d="M124.3 132.2 L134 164"></path><path d="M161.2 93 L146.9 150.3"></path></g>

<g stroke="#E4F0F9" stroke-width="3.2">
<path d="M319 289 Q342 292 356 300 L360 312"></path>
<path d="M317 294 L303 305"></path>
</g>
<ellipse cx="300" cy="306" rx="5" ry="11" transform="rotate(-20 300 306)" stroke="#E4F0F9" stroke-width="2.4"></ellipse>



<ellipse cx="262" cy="316" rx="82" ry="10" fill="#050C16" fill-opacity="0.55" stroke="#E4F0F9" stroke-width="2.4"></ellipse>
<g stroke="#9CCBEA" stroke-width="1" opacity="0.8">
<ellipse cx="262" cy="316" rx="64" ry="7.5"></ellipse><ellipse cx="262" cy="316" rx="46" ry="5.5"></ellipse>
</g>
<ellipse cx="262" cy="316" rx="16" ry="2.8" stroke="#E4F0F9" stroke-width="1.6"></ellipse>
<path d="M262 316 v-5" stroke="#E4F0F9" stroke-width="2.4"></path>
</g>
<g filter="url(#sketch)" fill="none" stroke-linecap="round" stroke-linejoin="round">
<g clip-path="url(#hornC)" stroke="#9CCBEA" stroke-width="1.3" opacity="0.8"><path d="M-40 300 l55.00000000000001 -100"></path><path d="M-33 300 l55.00000000000001 -100"></path><path d="M-26 300 l55.00000000000001 -100"></path><path d="M-19 300 l55.00000000000001 -100"></path><path d="M-12 300 l55.00000000000001 -100"></path><path d="M-5 300 l55.00000000000001 -100"></path><path d="M2 300 l55.00000000000001 -100"></path><path d="M9 300 l55.00000000000001 -100"></path><path d="M16 300 l55.00000000000001 -100"></path><path d="M23 300 l55.00000000000001 -100"></path><path d="M30 300 l55.00000000000001 -100"></path><path d="M37 300 l55.00000000000001 -100"></path><path d="M44 300 l55.00000000000001 -100"></path><path d="M51 300 l55.00000000000001 -100"></path><path d="M58 300 l55.00000000000001 -100"></path><path d="M65 300 l55.00000000000001 -100"></path><path d="M72 300 l55.00000000000001 -100"></path><path d="M79 300 l55.00000000000001 -100"></path><path d="M86 300 l55.00000000000001 -100"></path><path d="M93 300 l55.00000000000001 -100"></path><path d="M100 300 l55.00000000000001 -100"></path><path d="M107 300 l55.00000000000001 -100"></path><path d="M114 300 l55.00000000000001 -100"></path><path d="M121 300 l55.00000000000001 -100"></path><path d="M128 300 l55.00000000000001 -100"></path><path d="M135 300 l55.00000000000001 -100"></path><path d="M142 300 l55.00000000000001 -100"></path><path d="M149 300 l55.00000000000001 -100"></path><path d="M156 300 l55.00000000000001 -100"></path><path d="M163 300 l55.00000000000001 -100"></path><path d="M170 300 l55.00000000000001 -100"></path><path d="M177 300 l55.00000000000001 -100"></path><path d="M184 300 l55.00000000000001 -100"></path><path d="M191 300 l55.00000000000001 -100"></path><path d="M198 300 l55.00000000000001 -100"></path><path d="M205 300 l55.00000000000001 -100"></path><path d="M212 300 l55.00000000000001 -100"></path><path d="M219 300 l55.00000000000001 -100"></path><path d="M226 300 l55.00000000000001 -100"></path><path d="M233 300 l55.00000000000001 -100"></path><path d="M240 300 l55.00000000000001 -100"></path><path d="M247 300 l55.00000000000001 -100"></path><path d="M254 300 l55.00000000000001 -100"></path><path d="M261 300 l55.00000000000001 -100"></path><path d="M268 300 l55.00000000000001 -100"></path><path d="M275 300 l55.00000000000001 -100"></path><path d="M282 300 l55.00000000000001 -100"></path><path d="M289 300 l55.00000000000001 -100"></path><path d="M296 300 l55.00000000000001 -100"></path><path d="M303 300 l55.00000000000001 -100"></path><path d="M310 300 l55.00000000000001 -100"></path><path d="M317 300 l55.00000000000001 -100"></path><path d="M324 300 l55.00000000000001 -100"></path><path d="M331 300 l55.00000000000001 -100"></path><path d="M338 300 l55.00000000000001 -100"></path></g>
<g clip-path="url(#frontC)" stroke="#9CCBEA" stroke-width="1.2" opacity="0.55"><path d="M50 430 l60 -100"></path><path d="M59 430 l60 -100"></path><path d="M68 430 l60 -100"></path><path d="M77 430 l60 -100"></path><path d="M86 430 l60 -100"></path><path d="M95 430 l60 -100"></path><path d="M104 430 l60 -100"></path><path d="M113 430 l60 -100"></path><path d="M122 430 l60 -100"></path><path d="M131 430 l60 -100"></path><path d="M140 430 l60 -100"></path><path d="M149 430 l60 -100"></path><path d="M158 430 l60 -100"></path><path d="M167 430 l60 -100"></path><path d="M176 430 l60 -100"></path><path d="M185 430 l60 -100"></path><path d="M194 430 l60 -100"></path><path d="M203 430 l60 -100"></path><path d="M212 430 l60 -100"></path><path d="M221 430 l60 -100"></path><path d="M230 430 l60 -100"></path><path d="M239 430 l60 -100"></path><path d="M248 430 l60 -100"></path><path d="M257 430 l60 -100"></path><path d="M266 430 l60 -100"></path><path d="M275 430 l60 -100"></path><path d="M284 430 l60 -100"></path><path d="M293 430 l60 -100"></path><path d="M302 430 l60 -100"></path><path d="M311 430 l60 -100"></path><path d="M320 430 l60 -100"></path><path d="M329 430 l60 -100"></path><path d="M338 430 l60 -100"></path><path d="M347 430 l60 -100"></path></g>
<g clip-path="url(#sideC)" stroke="#9CCBEA" stroke-width="1.3" opacity="0.9"><path d="M218 432 l66 -132"></path><path d="M222 432 l66 -132"></path><path d="M226 432 l66 -132"></path><path d="M230 432 l66 -132"></path><path d="M234 432 l66 -132"></path><path d="M238 432 l66 -132"></path><path d="M242 432 l66 -132"></path><path d="M246 432 l66 -132"></path><path d="M250 432 l66 -132"></path><path d="M254 432 l66 -132"></path><path d="M258 432 l66 -132"></path><path d="M262 432 l66 -132"></path><path d="M266 432 l66 -132"></path><path d="M270 432 l66 -132"></path><path d="M274 432 l66 -132"></path><path d="M278 432 l66 -132"></path><path d="M282 432 l66 -132"></path><path d="M286 432 l66 -132"></path><path d="M290 432 l66 -132"></path><path d="M294 432 l66 -132"></path><path d="M298 432 l66 -132"></path><path d="M302 432 l66 -132"></path><path d="M306 432 l66 -132"></path><path d="M310 432 l66 -132"></path><path d="M314 432 l66 -132"></path><path d="M318 432 l66 -132"></path><path d="M322 432 l66 -132"></path><path d="M326 432 l66 -132"></path><path d="M330 432 l66 -132"></path><path d="M334 432 l66 -132"></path><path d="M338 432 l66 -132"></path><path d="M342 432 l66 -132"></path><path d="M346 432 l66 -132"></path><path d="M350 432 l66 -132"></path><path d="M354 432 l66 -132"></path><path d="M358 432 l66 -132"></path><path d="M362 432 l66 -132"></path><path d="M366 432 l66 -132"></path><path d="M370 432 l66 -132"></path><path d="M374 432 l66 -132"></path><path d="M378 432 l66 -132"></path><path d="M382 432 l66 -132"></path></g>

<g stroke="#E4F0F9" stroke-width="2.8">
<path d="M316 281 Q250 205 180 88 A28 100 30 0 0 80 262 Q225 272 322 297 Z"></path>
<path d="M314 279 Q252 208 184 92 M78 258 Q226 268 324 299" stroke-width="1.4" opacity="0.7"></path>
<ellipse cx="130" cy="175" rx="28" ry="100" transform="rotate(30 130 175)"></ellipse>
<ellipse cx="132" cy="176" rx="23" ry="93" transform="rotate(30 130 175)" stroke-width="1.4"></ellipse>
<ellipse cx="138" cy="181" rx="9" ry="34" transform="rotate(30 130 175)" stroke-width="1.6"></ellipse>
</g>
<g stroke="#E4F0F9" stroke-width="1.5" opacity="0.85"><path d="M185.3 98.4 Q247.2 212.4 319 289"></path><path d="M182.5 123.7 Q243.8 221.8 319 289"></path><path d="M169.9 158.5 Q240.3 231.1 319 289"></path><path d="M149.8 196.5 Q236.8 240.4 319 289"></path><path d="M126 230.4 Q233.3 249.7 319 289"></path><path d="M103 254 Q229.9 259 319 289"></path><path d="M88 262.3 Q227.1 266.4 319 289"></path></g>
<g stroke="#9CCBEA" stroke-width="1.2" opacity="0.8"><path d="M185.4 107 L155.4 155.2"></path><path d="M169.9 158.5 L150 173.2"></path><path d="M135.7 217.8 L138 194"></path><path d="M98.8 257 L125.1 207.7"></path><path d="M74.6 243 L116.6 202.8"></path><path d="M90.1 191.5 L122 184.8"></path><path d="M124.3 132.2 L134 164"></path><path d="M161.2 93 L146.9 150.3"></path></g>

<g stroke="#E4F0F9" stroke-width="3.2">
<path d="M319 289 Q342 292 356 300 L360 312"></path>
<path d="M317 294 L303 305"></path>
</g>
<ellipse cx="300" cy="306" rx="5" ry="11" transform="rotate(-20 300 306)" stroke="#E4F0F9" stroke-width="2.4"></ellipse>



<ellipse cx="262" cy="316" rx="82" ry="10" fill="#050C16" fill-opacity="0.55" stroke="#E4F0F9" stroke-width="2.4"></ellipse>
<g stroke="#9CCBEA" stroke-width="1" opacity="0.8">
<ellipse cx="262" cy="316" rx="64" ry="7.5"></ellipse><ellipse cx="262" cy="316" rx="46" ry="5.5"></ellipse>
</g>
<ellipse cx="262" cy="316" rx="16" ry="2.8" stroke="#E4F0F9" stroke-width="1.6"></ellipse>
<path d="M262 316 v-5" stroke="#E4F0F9" stroke-width="2.4"></path>
</g>
<g fill="none" stroke-linecap="round" stroke-linejoin="round"><g shape-rendering="geometricPrecision" stroke="#E4F0F9" stroke-width="2.8">
<polygon points="150,330 350,330 382,304 182,304"></polygon>
<rect x="150" y="330" width="200" height="100"></rect>
<polygon points="350,330 382,304 382,402 350,430"></polygon>
<rect x="166" y="345" width="168" height="70" rx="5" stroke-width="1.8"></rect>
<rect x="172" y="351" width="156" height="58" rx="3" stroke-width="1" opacity="0.6"></rect>
<path d="M158 430 v20 h14 v-20 M328 430 v20 h14 v-20 M366 416 v18 h10 v-26" stroke-width="2.4"></path>
<path d="M382 370 h24 v24" stroke-width="3.6"></path>
<circle cx="406" cy="398" r="6" stroke-width="2.4"></circle>
</g></g>
</svg>